#!OML:ASF H:\ManfredETheater\Project 1\Capture day 1\Session 1\subject.ASF
:FULLY-SPECIFIED
:DEGREES
92
root 1.169 16.34 -9.62507 -193.57 -9.53417 181.315
lowerback 12.5177 -1.37794 1.31422
upperback -1.2292 -1.5253 2.59138
thorax -8.31714 -0.775627 2.32366
lowerneck -17.0012 -2.86009 -3.69272
upperneck 15.5865 -3.02271 -0.296572
head 7.65698 -1.73459 0.151449
rclavicle 9.93923e-016 4.77083e-015
rhumerus -42.2907 1.84042 -79.4491
rradius 72.0949
rwrist -1.32548
rhand -25.1073 8.7668
rfingers 7.12502
rthumb 1.4079 -21.2083
lclavicle 9.93923e-016 4.77083e-015
lhumerus -42.3594 -5.33701 96.0404
lradius 70.4444
lwrist 1.05584
lhand -27.0096 -4.37139
lfingers 7.12502
lthumb -0.429326 25.6079
rfemur -26.2584 -4.67621 23.3082
rtibia 51.9102
rfoot -6.69804 -9.59041
rtoes -9.75992
lfemur -29.7624 -0.719952 -15.4238
ltibia 78.6163
lfoot -19.068 -9.77288
ltoes -5.72763
93
root 1.16915 16.4274 -9.78659 -193.23 -9.56386 181.189
lowerback 12.2868 -1.28378 1.37151
upperback -1.30782 -1.39287 2.56613
thorax -8.27555 -0.713001 2.23272
lowerneck -17.1368 -2.95086 -3.77733
upperneck 15.6111 -3.12214 -0.265746
head 7.69233 -1.78285 0.161663
rclavicle 8.94531e-015 4.77083e-015
rhumerus -41.7451 1.76664 -79.413
rradius 71.2773
rwrist -1.94903
rhand -25.2933 8.25617
rfingers 7.12502
rthumb 1.2283 -21.72
lclavicle 8.94531e-015 4.77083e-015
lhumerus -42.604 -5.47561 96.0045
lradius 68.9017
lwrist 0.60729
lhand -26.6499 -4.19318
lfingers 7.12502
lthumb -0.0819521 25.7865
rfemur -25.5667 -4.41426 23.2779
rtibia 51.2344
rfoot -6.9555 -9.99603
rtoes -9.35524
lfemur -29.9577 -0.530724 -15.9759
ltibia 76.67
lfoot -19.2582 -10.2011
ltoes -5.90668
94
root 1.1683 16.5136 -9.94532 -192.909 -9.60619 181.03
lowerback 12.0738 -1.20412 1.39438
upperback -1.37422 -1.28567 2.52959
thorax -8.22922 -0.661239 2.15489
lowerneck -17.261 -3.02693 -3.85004
upperneck 15.623 -3.20385 -0.239621
head 7.72098 -1.82226 0.170639
rclavicle 3.77691e-015 -6.36111e-014
rhumerus -41.2272 1.71043 -79.402
rradius 70.4913
rwrist -2.53577
rhand -25.4592 7.71387
rfingers 7.12502
rthumb 1.06804 -22.2632
lclavicle 3.77691e-015 -6.36111e-014
lhumerus -42.8721 -5.54744 95.9317
lradius 67.3538
lwrist -0.260684
lhand -26.2798 -4.05743
lfingers 7.12502
lthumb 0.275487 25.9221
rfemur -24.8567 -4.17726 23.204
rtibia 50.5374
rfoot -7.18295 -10.3796
rtoes -8.92729
lfemur -30.0136 -0.407417 -16.5501
ltibia 74.619
lfoot -19.3572 -10.6252
ltoes -6.05714
95
root 1.16597 16.599 -10.1015 -192.612 -9.64789 180.845
lowerback 11.8765 -1.13563 1.39789
upperback -1.42825 -1.19691 2.48264
thorax -8.17753 -0.617761 2.08107
lowerneck -17.3703 -3.08629 -3.90435
upperneck 15.6276 -3.2656 -0.227472
head 7.74378 -1.8525 0.17457
rclavicle 1.2921e-014 8.74653e-015
rhumerus -40.7374 1.66226 -79.4112
rradius 69.7295
rwrist -3.04473
rhand -25.5961 7.14103
rfingers 7.12502
rthumb 0.935882 -22.8367
lclavicle 1.2921e-014 8.74653e-015
lhumerus -43.1565 -5.54599 95.8187
lradius 65.7972
lwrist -1.44792
lhand -25.8702 -3.95225
lfingers 7.12502
lthumb 0.67112 26.0264
rfemur -24.1234 -3.96679 23.0961
rtibia 49.8178
rfoot -7.37952 -10.7369
rtoes -8.48723
lfemur -29.9221 -0.338016 -17.1285
ltibia 72.4786
lfoot -19.3523 -11.0335
ltoes -6.16665
96
root 1.16175 16.6836 -10.2555 -192.321 -9.67825 180.634
lowerback 11.6713 -1.07503 1.38579
upperback -1.47818 -1.12166 2.42917
thorax -8.11613 -0.580238 2.01178
lowerneck -17.4539 -3.1284 -3.94496
upperneck 15.6265 -3.30587 -0.232355
head 7.7593 -1.87363 0.17356
rclavicle -1.61016e-014 1.19271e-014
rhumerus -40.2848 1.62657 -79.4327
rradius 68.9955
rwrist -3.45963
rhand -25.6975 6.52759
rfingers 7.12502
rthumb 0.837932 -23.4505
lclavicle -1.61016e-014 1.19271e-014
lhumerus -43.4614 -5.47084 95.6734
lradius 64.2413
lwrist -2.80432
lhand -25.417 -3.8689
lfingers 7.12502
lthumb 1.10883 26.108
rfemur -23.3862 -3.78707 22.9593
rtibia 49.0742
rfoot -7.54411 -11.0621
rtoes -8.01514
lfemur -29.7052 -0.318547 -17.7019
ltibia 70.2667
lfoot -19.2258 -11.4188
ltoes -6.22213
97
root 1.15585 16.7671 -10.4075 -192.021 -9.68594 180.418
lowerback 11.4434 -1.01883 1.37547
upperback -1.53136 -1.05263 2.37705
thorax -8.04485 -0.54589 1.94401
lowerneck -17.5181 -3.15293 -3.9721
upperneck 15.64 -3.32461 -0.253038
head 7.77547 -1.88596 0.167782
rclavicle -2.68359e-014 1.90833e-014
rhumerus -39.8767 1.60143 -79.4608
rradius 68.2947
rwrist -3.77378
rhand -25.7563 5.86298
rfingers 7.12502
rthumb 0.78111 -24.1153
lclavicle -2.68359e-014 1.90833e-014
lhumerus -43.7802 -5.33268 95.5033
lradius 62.6838
lwrist -4.17886
lhand -24.9142 -3.81423
lfingers 7.12502
lthumb 1.59441 26.1596
rfemur -22.662 -3.63215 22.8205
rtibia 48.3057
rfoot -7.68163 -11.3562
rtoes -7.51315
lfemur -29.3907 -0.346883 -18.2388
ltibia 68.0055
lfoot -18.9584 -11.786
ltoes -6.21282
98
root 1.14851 16.8495 -10.5579 -191.703 -9.65977 180.205
lowerback 11.1778 -0.962393 1.36869
upperback -1.59303 -0.983418 2.33161
thorax -7.96081 -0.511624 1.88107
lowerneck -17.551 -3.16122 -3.98245
upperneck 15.6563 -3.32375 -0.296687
head 7.78608 -1.8908 0.154424
rclavicle -1.0138e-014 3.02153e-014
rhumerus -39.5183 1.58893 -79.493
rradius 67.6339
rwrist -4.00465
rhand -25.7676 5.14204
rfingers 7.12502
rthumb 0.770227 -24.8363
lclavicle -1.0138e-014 3.02153e-014
lhumerus -44.1118 -5.14262 95.3172
lradius 61.13
lwrist -5.44812
lhand -24.3576 -3.74945
lfingers 7.12502
lthumb 2.13199 26.2196
rfemur -21.962 -3.49429 22.691
rtibia 47.5131
rfoot -7.79756 -11.6157
rtoes -6.99566
lfemur -28.9999 -0.425887 -18.7243
ltibia 65.7183
lfoot -18.5202 -12.1366
ltoes -6.16378
